<?xml version="1.0" standalone="no"?>
<!DOCTYPE svg PUBLIC "-//W3C//DTD SVG 20010904//EN"
 "http://www.w3.org/TR/2001/REC-SVG-20010904/DTD/svg10.dtd">
<svg version="1.0" xmlns="http://www.w3.org/2000/svg"
 width="500.000000pt" height="500.000000pt" viewBox="0 0 500.000000 500.000000"
 preserveAspectRatio="xMidYMid meet">
<metadata>
Created by potrace 1.14, written by Peter Selinger 2001-2017
</metadata>
<g transform="translate(0.000000,500.000000) scale(0.100000,-0.100000)"
fill="#000000" stroke="none">
<path d="M2315 4094 c-192 -29 -407 -94 -560 -171 -106 -54 -282 -183 -378
-279 -426 -423 -573 -1042 -386 -1628 38 -119 124 -291 199 -401 30 -43 107
-133 170 -198 284 -292 649 -449 1080 -464 141 -5 183 -2 291 16 350 60 601
178 843 396 244 220 403 513 470 866 56 290 40 503 -59 804 -52 159 -81 217
-183 371 -144 214 -373 413 -607 528 -138 68 -219 97 -370 132 -104 24 -144
28 -300 30 -99 1 -193 0 -210 -2z m504 -194 c80 -16 156 -32 168 -37 12 -4
-66 -8 -180 -8 -229 0 -294 -10 -487 -75 -148 -50 -170 -59 -265 -115 -98 -58
-193 -124 -265 -185 -56 -47 -81 -62 -112 -65 -25 -3 -22 4 5 15 16 6 17 9 5
9 -9 1 -19 5 -22 10 -4 5 3 7 14 4 15 -4 18 -1 15 16 -3 16 1 21 16 21 10 0
19 4 19 8 0 5 -10 8 -22 6 -13 -1 -29 -3 -36 -3 -7 -1 -26 -14 -41 -30 -16
-16 -32 -28 -35 -25 -3 2 -4 1 -1 -3 3 -3 -5 -11 -18 -18 -12 -6 -21 -18 -21
-27 1 -10 -4 -14 -11 -11 -15 5 -38 -30 -27 -42 4 -5 2 -5 -5 -1 -12 7 -72
-62 -119 -136 -29 -45 -29 -45 -6 -51 9 -2 7 -3 -6 -2 -16 2 -22 -2 -18 -11 3
-8 0 -13 -6 -11 -17 3 -59 -86 -45 -95 8 -5 5 -8 -8 -8 -17 -1 -16 -3 5 -11
28 -11 90 -3 90 11 0 6 7 10 15 10 8 0 15 7 15 15 0 9 -9 15 -21 15 -29 0 -18
25 12 27 42 2 45 5 10 12 -32 6 -57 31 -31 31 6 0 8 -4 5 -10 -10 -16 51 -12
65 5 7 8 18 15 24 15 6 -1 0 -10 -13 -20 -13 -11 -21 -20 -18 -20 3 0 -23 -60
-58 -132 -65 -134 -125 -328 -125 -404 0 -19 -4 -34 -8 -34 -4 0 -6 -16 -4
-35 4 -31 2 -34 -14 -28 -11 4 -13 8 -6 11 9 3 9 9 1 23 -6 11 -16 18 -22 16
-7 -2 -18 3 -25 12 -9 10 -11 11 -6 2 5 -11 3 -13 -9 -8 -10 3 -17 2 -17 -3 0
-10 20 -14 52 -12 16 2 16 0 1 -18 -16 -18 -39 -18 -28 1 4 5 -3 9 -15 9 -19
0 -20 4 -15 79 7 119 50 305 68 294 6 -3 7 -1 3 6 -20 32 77 241 178 381 71
99 189 222 288 301 79 62 94 78 78 82 -13 3 -18 1 -13 -6 4 -7 0 -8 -11 -4
-13 5 -17 3 -13 -7 4 -10 1 -13 -10 -9 -8 3 -19 0 -23 -7 -5 -8 -13 -9 -21 -4
-24 15 -38 13 -34 -5 3 -14 -3 -17 -30 -16 -26 2 -42 -5 -69 -30 -20 -18 -36
-30 -36 -27 0 3 -16 -10 -37 -29 -20 -18 -33 -28 -29 -21 11 19 191 168 255
210 323 216 698 284 1110 202z m-109 -120 c0 -5 -4 -10 -10 -10 -5 0 -10 5
-10 10 0 6 5 10 10 10 6 0 10 -4 10 -10z m230 -21 c0 -28 33 -52 88 -66 l47
-11 -43 -1 c-48 -1 -92 -35 -92 -70 0 -11 -4 -23 -10 -26 -6 -4 -10 6 -10 24
0 42 -40 71 -99 72 -47 1 -44 3 20 13 44 8 79 39 79 72 0 14 4 22 10 19 6 -3
10 -15 10 -26z m180 1 c0 -5 -5 -10 -11 -10 -5 0 -7 5 -4 10 3 6 8 10 11 10 2
0 4 -4 4 -10z m-510 -65 c0 -15 -7 -26 -20 -30 -41 -13 -70 43 -33 64 25 13
53 -5 53 -34z m655 -40 c0 -25 -4 -30 -24 -30 -28 0 -47 25 -38 49 5 12 16 16
34 14 24 -3 28 -8 28 -33z m-1044 -122 c16 -31 58 -53 99 -53 16 0 30 -4 30
-10 0 -5 -17 -10 -38 -10 -65 0 -110 -52 -113 -132 -1 -23 -4 -17 -9 22 -10
69 -50 110 -108 110 -20 0 -44 5 -52 10 -11 7 -1 10 35 10 82 0 124 45 126
137 l1 48 8 -54 c5 -30 14 -65 21 -78z m191 107 c19 -17 19 -20 5 -20 -9 0
-17 -7 -17 -15 0 -8 -4 -15 -10 -15 -5 0 -10 7 -10 15 0 8 -7 15 -15 15 -8 0
-15 5 -15 10 0 6 7 10 15 10 8 0 15 5 15 10 0 15 8 12 32 -10z m332 -61 c-3
-5 -10 -7 -15 -3 -5 3 -7 10 -3 15 3 5 10 7 15 3 5 -3 7 -10 3 -15z m-244 -25
c0 -8 -4 -12 -10 -9 -5 3 -10 10 -10 16 0 5 5 9 10 9 6 0 10 -7 10 -16z m900
-59 c0 -8 -4 -15 -10 -15 -5 0 -10 7 -10 15 0 8 5 15 10 15 6 0 10 -7 10 -15z
m-1730 -19 c0 -2 -7 -7 -16 -10 -8 -3 -12 -2 -9 4 6 10 25 14 25 6z m1384 -22
c79 -20 183 -75 232 -123 102 -98 97 -342 -10 -504 -47 -71 -143 -165 -219
-216 -43 -29 -54 -40 -42 -45 9 -3 13 -2 10 4 -3 6 -4 10 0 10 3 0 9 -9 13
-20 7 -18 11 -17 66 20 45 30 62 37 68 28 7 -12 12 -4 9 17 -1 6 5 2 12 -7 8
-10 23 -18 35 -18 11 0 22 -6 25 -12 9 -24 146 132 184 210 20 40 38 70 41 67
3 -3 -12 -39 -32 -80 -53 -107 -179 -232 -301 -300 -49 -27 -92 -53 -93 -57
-2 -5 -9 -5 -15 -1 -7 3 -8 2 -4 -2 10 -12 139 -7 173 5 15 6 29 9 31 7 5 -6
-130 -76 -190 -98 -33 -12 -43 -18 -27 -18 14 1 36 0 50 -1 l25 -1 -23 -9
c-42 -18 -149 -23 -218 -11 -92 16 -144 30 -144 39 0 5 46 36 103 70 56 34
109 68 119 75 15 12 21 67 6 67 -3 0 -18 24 -31 54 -52 114 -208 326 -281 381
l-35 27 -38 -23 c-21 -12 -54 -35 -74 -51 -20 -15 -41 -28 -47 -28 -5 0 -33
-15 -61 -34 l-51 -35 0 62 c1 254 178 481 430 553 65 18 230 17 304 -2z m477
-24 c25 0 25 -16 -1 -23 -12 -3 -20 -14 -20 -27 0 -11 -4 -18 -10 -15 -5 3
-10 15 -10 25 0 11 -9 20 -22 23 l-23 4 22 8 c11 4 24 17 28 28 l8 22 4 -22
c3 -15 12 -23 24 -23z m-1884 14 c-3 -3 -12 -4 -19 -1 -8 3 -5 6 6 6 11 1 17
-2 13 -5z m337 -212 c23 -44 54 -62 128 -71 l63 -8 -53 -2 c-114 -2 -150 -41
-160 -175 l-6 -81 -7 80 c-3 45 -12 94 -20 110 -20 42 -71 64 -154 66 l-70 2
72 8 c134 16 162 47 172 194 l5 90 7 -91 c4 -52 14 -104 23 -122z m456 198 c0
-5 -4 -10 -10 -10 -5 0 -10 5 -10 10 0 6 5 10 10 10 6 0 10 -4 10 -10z m-797
-7 c-7 -2 -19 -2 -25 0 -7 3 -2 5 12 5 14 0 19 -2 13 -5z m51 -33 c-16 -16
-36 -29 -44 -29 -12 0 -11 2 3 13 10 8 14 16 10 18 -4 3 -3 4 4 2 6 -1 19 4
30 11 29 23 28 17 -3 -15z m-57 14 c-3 -3 -12 -4 -19 -1 -8 3 -5 6 6 6 11 1
17 -2 13 -5z m14 -54 c6 0 7 -4 4 -10 -10 -15 -32 -12 -39 6 -5 12 -2 15 10
10 8 -3 20 -6 25 -6z m409 -10 c0 -5 -4 -10 -10 -10 -5 0 -10 5 -10 10 0 6 5
10 10 10 6 0 10 -4 10 -10z m260 0 c0 -5 -4 -10 -10 -10 -5 0 -10 5 -10 10 0
6 5 10 10 10 6 0 10 -4 10 -10z m1300 -20 c0 -5 -4 -10 -10 -10 -5 0 -10 5
-10 10 0 6 5 10 10 10 6 0 10 -4 10 -10z m-2055 -30 c3 -5 1 -10 -4 -10 -6 0
-11 5 -11 10 0 6 2 10 4 10 3 0 8 -4 11 -10z m1895 0 c0 -5 -4 -10 -10 -10 -5
0 -10 5 -10 10 0 6 5 10 10 10 6 0 10 -4 10 -10z m-1913 -26 c-3 -3 -12 -4
-19 -1 -8 3 -5 6 6 6 11 1 17 -2 13 -5z m1833 -30 c0 -2 -9 0 -20 6 -11 6 -20
13 -20 16 0 2 9 0 20 -6 11 -6 20 -13 20 -16z m319 -87 c7 -7 31 -17 54 -24
l42 -11 -37 -1 c-42 -1 -78 -37 -78 -80 -1 -22 -3 -20 -15 14 -17 47 -38 65
-79 66 -28 0 -26 2 16 15 43 13 49 19 60 56 l12 42 7 -33 c4 -18 12 -38 18
-44z m-2169 49 c0 -8 -51 -13 -56 -5 -3 5 9 9 25 9 17 0 31 -2 31 -4z m720 0
c0 -3 -4 -8 -10 -11 -5 -3 -10 -1 -10 4 0 6 5 11 10 11 6 0 10 -2 10 -4z
m-755 -29 c16 -4 14 -5 -6 -6 -17 -1 -29 5 -33 15 -5 13 -3 14 6 6 7 -5 22
-12 33 -15z m-58 7 c-3 -3 -12 -4 -19 -1 -8 3 -5 6 6 6 11 1 17 -2 13 -5z
m228 -291 c16 -100 77 -140 228 -151 l92 -7 -110 -6 c-123 -6 -157 -18 -184
-63 -19 -31 -40 -138 -42 -218 -1 -24 -6 0 -11 52 -9 105 -35 171 -79 203 -20
15 -51 21 -120 25 l-94 6 87 12 c100 13 148 38 172 88 22 46 36 124 37 210 l2
71 7 -91 c4 -51 11 -110 15 -131z m-285 197 c0 -5 -10 -10 -22 -9 -22 0 -22 1
-3 9 11 5 21 9 23 9 1 1 2 -3 2 -9z m-39 -37 c0 -16 1 -16 8 1 7 18 8 18 14 3
3 -9 5 -17 3 -17 -3 0 -11 -3 -19 -6 -9 -3 -16 3 -20 15 -3 12 -1 21 4 21 5 0
9 -8 10 -17z m51 -5 c-7 -7 -12 -8 -12 -2 0 14 12 26 19 19 2 -3 -1 -11 -7
-17z m822 -36 c-13 -12 -19 -13 -22 -4 -2 6 -10 12 -18 12 -8 0 -14 5 -14 10
0 6 7 10 15 10 8 0 15 8 15 17 0 14 3 13 21 -5 19 -21 19 -23 3 -40z m-664 -2
c0 -5 -4 -10 -10 -10 -5 0 -10 5 -10 10 0 6 5 10 10 10 6 0 10 -4 10 -10z
m2200 -29 c0 -6 -4 -13 -10 -16 -5 -3 -10 1 -10 9 0 9 5 16 10 16 6 0 10 -4
10 -9z m-1942 -63 c-6 -18 -28 -21 -28 -4 0 9 7 16 16 16 9 0 14 -5 12 -12z
m92 -32 c0 -3 -4 -8 -10 -11 -5 -3 -10 -1 -10 4 0 6 5 11 10 11 6 0 10 -2 10
-4z m696 -113 c-3 -7 2 -13 10 -13 8 0 12 -5 8 -11 -3 -6 -19 -9 -35 -7 -35 5
-37 0 -7 -11 20 -7 18 -9 -15 -13 -37 -4 -41 -2 -83 53 l-44 58 32 22 c18 13
35 28 37 33 6 15 102 -96 97 -111z m1044 102 c0 -8 -7 -15 -15 -15 -8 0 -15 7
-15 15 0 8 7 15 15 15 8 0 15 -7 15 -15z m205 -84 c-28 -103 -100 -233 -180
-325 -79 -90 -161 -162 -181 -160 -8 1 -11 -2 -9 -7 7 -10 -27 -29 -50 -29
-10 0 -13 5 -9 12 5 8 2 9 -10 5 -14 -6 -15 -3 -6 13 6 11 8 20 5 20 -3 0 22
21 57 48 35 26 83 69 108 95 25 26 50 47 55 47 6 0 16 10 24 23 8 12 31 42 51
67 49 60 117 173 138 233 24 66 28 39 7 -42z m-1765 61 c0 -13 -12 -22 -22
-16 -10 6 -1 24 13 24 5 0 9 -4 9 -8z m340 -116 c51 -61 58 -76 35 -76 -9 0
-13 -5 -10 -10 4 -6 11 -8 16 -5 5 4 17 1 26 -5 15 -8 10 -10 -22 -8 -34 3
-46 10 -80 52 -63 76 -62 75 -41 92 11 8 22 14 25 13 3 0 26 -24 51 -53z
m1250 9 c0 -8 8 -16 18 -16 16 -1 16 -2 0 -6 -10 -2 -18 -11 -18 -19 0 -18 -6
-18 -27 4 -16 15 -16 19 -3 34 19 21 30 22 30 3z m-1360 -61 c32 -45 32 -46
13 -65 -18 -19 -19 -18 -58 32 -37 49 -38 52 -20 65 27 20 28 19 65 -32z m309
1 c29 -31 24 -39 -9 -20 -14 8 -33 18 -42 21 -25 9 -22 24 5 24 12 0 33 -12
46 -25z m36 15 c3 -5 -1 -10 -10 -10 -9 0 -13 5 -10 10 3 6 8 10 10 10 2 0 7
-4 10 -10z m-65 -41 c0 -13 -13 -11 -35 5 -18 13 -18 14 8 9 15 -3 27 -9 27
-14z m-328 -127 c-9 -7 -11 -11 -4 -7 6 3 12 2 12 -4 0 -5 -6 -11 -12 -14 -18
-6 -5 -18 21 -20 22 -1 28 -12 12 -21 -16 -10 -62 18 -57 36 2 11 -1 15 -10
11 -19 -7 -18 -16 6 -46 26 -33 25 -38 -5 -24 -13 7 -24 18 -22 25 1 7 -9 18
-22 25 -12 6 -38 33 -57 58 l-34 47 42 32 43 31 52 -57 c47 -53 50 -59 35 -72z
m234 57 c9 -15 -33 -10 -45 5 -9 11 -6 12 14 8 14 -2 28 -8 31 -13z m-1026 -7
c0 -13 -12 -22 -22 -16 -10 6 -1 24 13 24 5 0 9 -4 9 -8z m400 -2 c0 -5 -5
-10 -11 -10 -5 0 -7 5 -4 10 3 6 8 10 11 10 2 0 4 -4 4 -10z m192 -57 c8 -10
32 -41 52 -70 35 -51 35 -52 10 -43 -36 14 -41 12 -18 -6 18 -15 17 -15 -14
-10 -20 4 -31 2 -27 -4 3 -6 24 -10 46 -10 21 0 39 -5 39 -11 0 -7 -12 -8 -32
-4 -33 7 -31 -7 2 -18 8 -2 3 -3 -12 -1 -34 4 -36 -3 -5 -16 22 -9 22 -9 -3
-10 -20 0 -22 -2 -10 -10 13 -8 12 -10 -3 -10 -10 0 -20 7 -23 15 -4 8 -16 15
-28 15 -21 -1 -21 -1 -1 -13 31 -19 28 -36 -8 -45 -27 -7 -32 -6 -35 10 -3 18
-32 26 -32 9 0 -5 -9 -7 -20 -4 -11 3 -17 9 -14 14 3 5 0 9 -6 9 -6 0 -10 -8
-8 -17 2 -12 13 -18 33 -18 24 -1 30 -5 30 -23 0 -12 -3 -22 -7 -22 -5 0 -22
0 -39 0 -24 0 -30 4 -25 16 3 8 2 12 -4 9 -5 -3 -14 5 -21 17 -6 13 -27 42
-45 65 l-34 41 53 38 c73 54 180 124 187 124 4 0 14 -8 22 -17z m718 -20 c-1
-17 -82 -65 -92 -55 -11 11 15 45 42 55 22 8 50 8 50 0z m-1513 -55 c-3 -8 -6
-5 -6 6 -1 11 2 17 5 13 3 -3 4 -12 1 -19z m223 12 c0 -5 -4 -10 -10 -10 -5 0
-10 5 -10 10 0 6 5 10 10 10 6 0 10 -4 10 -10z m774 -51 c-8 -14 -31 -11 -37
4 -4 10 2 13 19 9 13 -2 21 -8 18 -13z m373 5 c2 -6 -8 -17 -22 -24 -23 -12
-28 -12 -35 0 -7 11 -5 16 5 18 9 2 12 8 9 14 -4 6 3 8 17 6 12 -1 24 -8 26
-14z m-457 -48 c0 -3 -4 -8 -10 -11 -5 -3 -10 -1 -10 4 0 6 5 11 10 11 6 0 10
-2 10 -4z m-722 -67 c15 -1 15 -2 0 -6 -10 -2 -19 -12 -19 -21 -1 -15 -2 -15
-6 1 -2 9 -12 18 -21 18 -15 1 -15 2 1 6 9 2 18 12 18 21 1 15 2 15 6 0 2 -10
12 -19 21 -19z m354 -47 l29 -43 -24 6 c-15 4 -28 1 -36 -9 -12 -14 -9 -16 25
-17 22 0 33 -3 26 -6 -10 -4 -10 -8 0 -21 11 -13 10 -14 -8 -4 -20 11 -110 10
-121 -2 -4 -3 1 -6 10 -6 9 0 21 -9 27 -20 6 -11 20 -20 32 -20 12 0 18 -3 14
-7 -3 -4 -30 -6 -59 -5 -38 1 -47 -1 -32 -8 18 -8 18 -9 2 -9 -10 -1 -16 -4
-13 -9 2 -4 -2 -16 -9 -26 -10 -13 -20 -16 -32 -11 -17 8 -17 8 2 13 34 7 38
19 6 17 -33 -2 -44 7 -90 74 l-29 45 41 29 c22 16 70 49 106 73 74 50 75 50
133 -34z m622 52 c4 -9 5 -18 4 -19 -34 -25 -85 -55 -94 -55 -7 0 -15 7 -18
16 -5 13 -2 15 14 11 11 -3 23 -1 26 4 3 5 -3 9 -13 10 -14 0 -12 3 7 11 14 6
29 10 33 9 4 0 10 6 13 14 8 20 20 19 28 -1z m1170 -38 c-3 -9 -10 -13 -15
-10 -5 3 -9 0 -9 -5 0 -6 5 -11 11 -11 5 0 7 -5 4 -10 -4 -6 -11 -7 -17 -4 -7
5 -9 1 -5 -9 4 -12 2 -14 -10 -10 -12 5 -15 2 -10 -10 6 -17 -15 -41 -27 -29
-4 4 -6 2 -4 -4 2 -7 -8 -21 -21 -33 -13 -12 -20 -21 -15 -21 5 0 -6 -8 -25
-18 -19 -9 -39 -26 -45 -37 -6 -11 -17 -24 -24 -28 -7 -5 -10 -12 -7 -18 11
-17 -14 -9 -25 9 -11 16 -11 16 -6 0 5 -16 -5 -23 -27 -19 -5 1 -6 -3 -3 -8 3
-5 -3 -11 -14 -14 -11 -3 -19 -11 -18 -19 2 -7 -3 -12 -10 -10 -7 1 -15 -5
-18 -13 -3 -8 -11 -12 -18 -8 -6 4 -5 -1 3 -10 12 -16 12 -17 -5 -11 -10 4
-16 4 -12 -1 16 -17 -210 -130 -372 -187 -93 -33 -240 -64 -336 -73 -22 -2
-61 -6 -85 -10 l-45 -7 -48 77 c-26 43 -46 78 -44 79 2 1 71 12 153 25 178 26
413 80 533 122 135 48 363 162 466 233 51 36 96 63 100 61 3 -3 4 -2 1 2 -5 7
46 65 52 59 2 -2 1 -11 -3 -20z m-1327 -53 c5 -13 -245 -165 -258 -157 -15 9
10 44 26 38 9 -4 15 0 15 10 0 9 5 16 11 16 5 0 7 -5 3 -11 -3 -6 12 1 35 16
22 15 38 32 35 36 -3 5 -2 8 3 7 14 -4 73 36 73 50 0 16 52 12 57 -5z m613 -3
c0 -5 -7 -10 -15 -10 -8 0 -15 5 -15 10 0 6 7 10 15 10 8 0 15 -4 15 -10z
m863 -25 c4 -8 3 -16 -1 -19 -4 -3 -9 4 -9 15 -2 23 3 25 10 4z m-57 -34 c-4
-5 -3 -11 1 -14 5 -2 3 -3 -4 -1 -6 1 -19 -6 -29 -17 -16 -18 -16 -19 10 -19
16 0 25 4 21 10 -3 6 0 10 8 10 22 0 29 -29 12 -46 -8 -9 -15 -12 -15 -7 0 5
5 14 10 19 7 7 -3 10 -32 8 -29 -1 -42 -6 -44 -18 -1 -9 2 -18 7 -22 5 -3 9 3
10 13 0 10 3 13 5 6 3 -7 12 -9 20 -6 8 3 14 0 14 -6 0 -6 -7 -11 -15 -11 -8
0 -15 -4 -15 -8 0 -4 9 -8 19 -8 11 0 17 4 15 8 -3 4 0 8 5 8 6 0 11 -4 11
-10 0 -5 8 -7 18 -3 11 4 7 -5 -12 -25 -17 -18 -36 -32 -43 -32 -8 0 -11 -5
-8 -10 4 -6 3 -10 -2 -9 -4 1 -16 1 -27 0 -15 -1 -16 -4 -6 -16 12 -14 7 -19
-13 -16 -5 1 -6 -3 -3 -8 3 -5 -1 -14 -9 -21 -8 -7 -15 -9 -15 -6 0 4 -12 -4
-27 -18 -15 -14 -31 -22 -36 -19 -6 3 -7 1 -4 -4 6 -9 -149 -123 -167 -123 -4
0 -22 -10 -39 -23 -45 -33 -265 -130 -277 -122 -5 3 -10 2 -10 -4 0 -5 -19 -9
-42 -8 -37 2 -43 -1 -40 -17 2 -11 -1 -16 -10 -13 -7 2 -12 10 -10 16 1 7 -2
9 -8 6 -6 -4 -9 -13 -6 -21 4 -11 -6 -14 -47 -15 -35 0 -46 -3 -33 -8 20 -8
20 -8 0 -12 -10 -3 -30 1 -44 9 -23 13 -23 13 -3 9 19 -4 21 -2 13 13 -8 15
-14 16 -35 7 -25 -12 -25 -12 -5 -29 26 -21 25 -23 -5 -23 -23 0 -27 3 -24 21
0 4 -5 10 -12 15 -14 8 -10 11 36 23 11 3 3 4 -17 3 -21 -2 -34 1 -31 7 4 5
-1 7 -11 3 -10 -4 -15 -3 -11 3 3 5 28 6 55 3 50 -6 50 -6 51 23 1 17 3 22 6
12 2 -10 11 -18 19 -18 8 0 12 5 9 10 -3 6 1 10 9 10 9 0 13 6 10 14 -4 11 0
13 15 9 13 -3 21 -1 21 6 0 7 5 9 10 6 6 -3 10 -1 10 6 0 7 7 4 15 -7 14 -17
15 -18 9 0 -4 10 -1 22 7 28 10 7 9 8 -6 3 -11 -5 -39 -14 -62 -23 -24 -8 -40
-19 -37 -24 3 -5 -3 -4 -15 4 -19 12 -14 15 62 39 146 47 271 105 472 219 72
41 144 91 193 136 33 28 52 40 59 33 7 -7 14 -5 23 6 11 13 10 14 -6 8 -10 -3
4 14 31 40 51 47 61 54 51 38z m-1886 -11 c0 -5 -7 -10 -15 -10 -8 0 -15 5
-15 10 0 6 7 10 15 10 8 0 15 -4 15 -10z m861 -30 c23 -13 25 -43 3 -61 -31
-26 -70 25 -44 56 15 18 16 18 41 5z m1097 -35 c-3 -3 -9 2 -12 12 -6 14 -5
15 5 6 7 -7 10 -15 7 -18z m-2243 -56 c14 -26 13 -28 -19 -43 -18 -9 -39 -22
-46 -31 -7 -8 -28 -25 -48 -37 l-35 -21 -28 34 c-16 19 -29 39 -29 45 0 7 29
31 64 54 36 23 70 48 77 57 11 13 15 12 31 -9 10 -13 25 -35 33 -49z m972 -10
c33 -17 34 -29 2 -29 -21 0 -39 -28 -40 -62 0 -20 -2 -18 -12 9 -15 39 -21 45
-60 60 -31 11 -31 12 -6 12 29 1 52 23 65 61 l8 25 5 -30 c4 -21 16 -35 38
-46z m1243 51 c0 -5 -2 -10 -4 -10 -3 0 -8 5 -11 10 -3 6 -1 10 4 10 6 0 11
-4 11 -10z m-1782 -28 c2 -6 -41 -40 -95 -75 -109 -71 -130 -80 -138 -67 -4 6
1 10 9 10 9 0 16 7 16 16 0 8 5 12 10 9 6 -3 10 -1 10 4 0 6 5 11 10 11 10 0
21 7 53 36 7 6 22 14 34 18 12 4 27 13 33 21 7 8 22 15 34 15 17 0 19 2 6 11
-12 9 -12 10 -1 7 8 -3 16 -9 19 -16z m233 -81 c28 -29 39 -71 18 -71 -5 0 -7
5 -3 11 4 7 1 10 -7 7 -8 -3 -18 5 -24 16 -21 42 -81 25 -72 -21 3 -17 0 -23
-14 -23 -15 0 -19 7 -19 33 0 74 68 101 121 48z m-882 -87 c-5 -6 -6 -14 -2
-17 3 -4 4 -7 1 -7 -3 0 -18 16 -33 35 -22 29 -24 39 -14 51 10 12 15 10 34
-18 14 -21 20 -37 14 -44z m-64 -11 c15 -31 15 -37 2 -50 -12 -13 -19 -8 -52
38 -37 49 -38 52 -20 65 16 12 21 12 36 -2 10 -9 25 -32 34 -51z m913 49 c2
-7 -6 -12 -17 -12 -21 0 -27 11 -14 24 9 9 26 2 31 -12z m-538 -20 c0 -9 -163
-113 -169 -107 -7 8 19 33 49 45 17 7 30 19 30 27 0 8 5 11 10 8 6 -3 10 -2
10 2 0 9 38 30 58 32 6 0 12 -2 12 -7z m350 -107 c0 -3 -13 -26 -30 -53 -17
-27 -30 -40 -30 -29 0 9 -5 17 -11 17 -5 0 -7 -6 -4 -12 4 -7 -3 -2 -14 12
-11 14 -21 29 -21 33 0 5 -4 6 -9 3 -5 -3 -11 0 -14 8 -3 8 -16 16 -29 19 -13
2 19 5 70 6 50 0 92 -1 92 -4z m-562 -37 c-6 -18 -25 -20 -31 -3 -5 10 0 15
14 15 12 0 19 -5 17 -12z m806 -59 c30 -40 35 -53 25 -60 -16 -10 -209 -12
-209 -3 0 14 42 74 51 74 6 0 7 5 4 10 -12 19 6 30 48 30 40 0 45 -4 81 -51z
m-854 1 c0 -5 -9 -14 -21 -20 -17 -9 -23 -8 -34 6 -11 16 -10 20 3 30 18 13
52 2 52 -16z m297 -5 c81 -8 169 -15 196 -15 45 0 47 -1 35 -21 -12 -19 -19
-20 -98 -14 -174 13 -338 48 -309 66 7 4 16 6 20 3 4 -2 74 -11 156 -19z
m1103 -75 c0 -5 -7 -10 -16 -10 -8 0 -12 5 -9 10 3 6 10 10 16 10 5 0 9 -4 9
-10z m17 -12 c-3 -8 -6 -5 -6 6 -1 11 2 17 5 13 3 -3 4 -12 1 -19z m209 -30
c-12 -7 -21 -7 -28 0 -6 6 0 10 18 10 23 0 24 -2 10 -10z m509 -29 c-4 -5 -14
-8 -23 -8 -15 1 -15 2 1 6 9 2 14 9 11 15 -4 7 -2 8 5 4 6 -4 9 -12 6 -17z
m-785 -26 c0 -19 -13 -9 -16 12 -1 8 2 13 7 9 5 -3 9 -12 9 -21z m733 -15 c-9
-11 -23 -16 -30 -14 -7 3 -13 -1 -13 -8 0 -15 -25 -39 -44 -42 -7 -1 -12 9
-12 22 0 15 5 23 11 20 7 -2 24 6 39 18 16 12 36 22 47 22 17 0 17 -2 2 -18z
m-128 -48 c-3 -5 0 -10 7 -10 9 0 9 -3 -2 -10 -8 -5 -19 -10 -25 -10 -5 0 -3
5 5 10 13 9 13 10 0 10 -13 0 -13 1 0 10 19 12 23 12 15 0z m-52 -55 c-7 -21
-12 -19 -10 4 0 11 5 18 9 15 4 -3 5 -11 1 -19z"/>
<path d="M1860 3689 c0 -5 5 -7 10 -4 6 3 10 8 10 11 0 2 -4 4 -10 4 -5 0 -10
-5 -10 -11z"/>
<path d="M1805 3671 c2 -19 18 -17 21 2 1 8 -4 14 -11 14 -7 0 -12 -7 -10 -16z"/>
<path d="M1741 3551 c-8 -6 -9 -11 -3 -15 6 -3 14 -1 17 5 9 14 2 20 -14 10z"/>
<path d="M1708 3523 c7 -3 16 -2 19 1 4 3 -2 6 -13 5 -11 0 -14 -3 -6 -6z"/>
<path d="M1408 3083 c7 -3 16 -2 19 1 4 3 -2 6 -13 5 -11 0 -14 -3 -6 -6z"/>
<path d="M1286 3001 c-12 -19 54 -25 71 -6 4 4 -1 6 -13 3 -12 -3 -28 -1 -37
3 -9 6 -18 5 -21 0z"/>
<path d="M1267 2968 c-7 -4 12 -8 41 -8 28 0 52 2 52 4 0 8 -81 11 -93 4z"/>
<path d="M1293 2943 c9 -2 25 -2 35 0 9 3 1 5 -18 5 -19 0 -27 -2 -17 -5z"/>
<path d="M1250 2929 c0 -4 5 -11 10 -14 6 -4 7 -11 4 -17 -4 -7 -2 -8 5 -4 6
4 9 11 6 16 -3 5 3 10 12 12 13 3 10 6 -9 10 -16 3 -28 2 -28 -3z"/>
<path d="M1170 2559 c0 -5 5 -7 10 -4 6 3 10 8 10 11 0 2 -4 4 -10 4 -5 0 -10
-5 -10 -11z"/>
<path d="M3450 2315 c-7 -9 -8 -15 -2 -15 5 0 12 7 16 15 3 8 4 15 2 15 -2 0
-9 -7 -16 -15z"/>
<path d="M2025 2350 c3 -5 11 -10 16 -10 6 0 7 5 4 10 -3 6 -11 10 -16 10 -6
0 -7 -4 -4 -10z"/>
<path d="M1655 2100 c3 -5 8 -10 11 -10 2 0 4 5 4 10 0 6 -5 10 -11 10 -5 0
-7 -4 -4 -10z"/>
<path d="M1648 2073 c7 -3 16 -2 19 1 4 3 -2 6 -13 5 -11 0 -14 -3 -6 -6z"/>
<path d="M3580 2034 c0 -2 19 -12 42 -23 33 -15 38 -20 22 -24 -17 -4 -16 -5
4 -6 13 -1 22 5 22 14 0 14 -12 19 -32 16 -5 0 -8 5 -8 13 0 8 -10 14 -25 14
-14 0 -25 -2 -25 -4z"/>
<path d="M3537 1996 c-10 -8 -19 -20 -21 -28 -1 -7 -5 -19 -9 -25 -5 -8 -4
-13 2 -13 6 0 11 5 11 11 0 5 5 7 12 3 7 -5 8 -3 3 6 -6 9 -4 12 7 8 8 -4 21
-2 29 3 11 7 9 9 -8 9 -13 0 -23 4 -23 9 0 11 26 21 53 20 21 0 21 -1 2 -10
-17 -7 -17 -8 -2 -6 10 1 19 7 20 12 3 16 -56 16 -76 1z"/>
<path d="M3680 2000 c0 -5 4 -10 9 -10 6 0 13 5 16 10 3 6 -1 10 -9 10 -9 0
-16 -4 -16 -10z"/>
<path d="M3550 1928 c0 -4 6 -8 14 -8 8 0 17 4 20 8 2 4 -4 8 -15 8 -10 0 -19
-4 -19 -8z"/>
<path d="M3460 1911 c0 -11 21 -19 38 -14 21 8 13 23 -13 23 -14 0 -25 -4 -25
-9z"/>
<path d="M3437 1904 c-3 -4 1 -13 11 -20 21 -16 32 -17 32 -4 0 6 -6 10 -14
10 -8 0 -16 5 -18 11 -2 5 -7 7 -11 3z"/>
<path d="M3430 1860 c0 -5 5 -10 11 -10 5 0 7 5 4 10 -3 6 -8 10 -11 10 -2 0
-4 -4 -4 -10z"/>
<path d="M3470 1850 c8 -5 20 -10 25 -10 6 0 3 5 -5 10 -8 5 -19 10 -25 10 -5
0 -3 -5 5 -10z"/>
<path d="M2981 1671 c-8 -5 -9 -11 -3 -15 5 -3 12 1 16 9 6 17 6 18 -13 6z"/>
<path d="M2870 1580 c0 -6 7 -10 15 -10 8 0 15 2 15 4 0 2 -7 6 -15 10 -8 3
-15 1 -15 -4z"/>
<path d="M2820 1553 c0 -10 4 -14 8 -8 4 6 11 13 16 18 5 4 2 7 -7 7 -10 0
-17 -8 -17 -17z"/>
<path d="M2098 1663 c7 -3 16 -2 19 1 4 3 -2 6 -13 5 -11 0 -14 -3 -6 -6z"/>
<path d="M3372 1444 c-7 -8 -8 -14 -3 -14 10 0 25 19 20 25 -2 1 -10 -3 -17
-11z"/>
</g>
</svg>
